<svg width="133" height="26" viewBox="0 0 133 26" fill="none" xmlns="http://www.w3.org/2000/svg">
<path d="M15.3231 4.89028L7.66153 9.78056L15.3231 14.6708L7.66153 19.5611L0 14.6301L7.66153 9.73981L0 4.89028L7.66153 0L15.3231 4.89028ZM7.62077 21.1097L15.2823 16.2194L22.9438 21.1097L15.2823 26L7.62077 21.1097ZM15.3231 14.6301L22.9846 9.73981L15.3231 4.89028L22.9438 0L30.6054 4.89028L22.9438 9.78056L30.6054 14.6708L22.9438 19.5611L15.3231 14.6301Z" fill="white"/>
<path d="M36.595 4.89075H42.7894C46.7424 4.89075 50.0026 7.17288 50.0026 12.3892V13.4895C50.0026 18.7465 46.9462 21.1102 42.9117 21.1102H36.595V4.89075ZM40.059 7.82491V18.1353H42.7079C44.9493 18.1353 46.4571 16.6682 46.4571 13.408V12.5522C46.4571 9.292 44.8678 7.82491 42.5856 7.82491H40.059ZM51.8365 7.98792H54.6077L55.056 11.0444C55.5858 8.96598 56.9306 7.86567 59.3758 7.86567H60.2316V11.3704H58.8053C55.9933 11.3704 55.3005 12.3484 55.3005 15.1196V21.1509H51.8773V7.98792H51.8365ZM60.9244 14.8343V14.4675C60.9244 10.0663 63.7363 7.6619 67.5671 7.6619C71.4794 7.6619 74.2098 10.0663 74.2098 14.4675V14.8343C74.2098 19.1541 71.5609 21.477 67.5671 21.477C63.3288 21.4362 60.9244 19.1541 60.9244 14.8343ZM70.7051 14.7936V14.4675C70.7051 12.0224 69.4825 10.5553 67.5264 10.5553C65.611 10.5553 64.3476 11.9002 64.3476 14.4675V14.7936C64.3476 17.1572 65.5702 18.502 67.5264 18.502C69.4825 18.4613 70.7051 17.1572 70.7051 14.7936ZM76.0029 7.98792H78.8556L79.1817 10.4738C79.8745 8.80297 81.3416 7.6619 83.5015 7.6619C86.8432 7.6619 89.0438 10.0663 89.0438 14.5083V14.8751C89.0438 19.1948 86.5987 21.477 83.5015 21.477C81.4231 21.477 79.9967 20.5396 79.3039 19.0318V25.6744H75.9622L76.0029 7.98792ZM85.5798 14.7936V14.5083C85.5798 11.9002 84.235 10.5961 82.4419 10.5961C80.5265 10.5961 79.2632 12.0632 79.2632 14.5083V14.7528C79.2632 17.0757 80.4857 18.5428 82.4011 18.5428C84.3573 18.502 85.5798 17.2387 85.5798 14.7936ZM94.0972 18.7058L93.8119 21.1102H90.8777V3.58667H94.2194V10.3108C94.953 8.59921 96.4201 7.6619 98.4985 7.6619C101.636 7.70266 103.959 9.86253 103.959 14.223V14.6306C103.959 18.9911 101.759 21.477 98.417 21.477C96.2163 21.4362 94.79 20.4174 94.0972 18.7058ZM100.455 14.6306V14.3045C100.455 11.9002 99.1505 10.5553 97.3167 10.5553C95.442 10.5553 94.1379 12.0632 94.1379 14.3453V14.6306C94.1379 17.0757 95.4013 18.502 97.2759 18.502C99.2728 18.502 100.455 17.2387 100.455 14.6306ZM105.426 14.8343V14.4675C105.426 10.0663 108.238 7.6619 112.069 7.6619C115.981 7.6619 118.712 10.0663 118.712 14.4675V14.8343C118.712 19.1541 116.022 21.477 112.069 21.477C107.831 21.4362 105.426 19.1541 105.426 14.8343ZM115.248 14.7936V14.4675C115.248 12.0224 114.025 10.5553 112.069 10.5553C110.154 10.5553 108.89 11.9002 108.89 14.4675V14.7936C108.89 17.1572 110.113 18.502 112.069 18.502C114.025 18.4613 115.248 17.1572 115.248 14.7936ZM123.195 14.3045L118.59 7.98792H122.543L125.192 11.9409L127.881 7.98792H131.794L127.107 14.2638L132.038 21.1102H128.167L125.151 16.7497L122.217 21.1102H118.182L123.195 14.3045Z" fill="white"/>
</svg>
