<svg width="49" height="48" viewBox="0 0 49 48" fill="none" xmlns="http://www.w3.org/2000/svg">
<rect x="1.10126" y="0.769231" width="46.4615" height="46.4615" rx="3.23077" fill="#F1F3F7" stroke="#6D758F" stroke-width="1.53846"/>
<mask id="mask0_180_2803" style="mask-type:alpha" maskUnits="userSpaceOnUse" x="2" y="1" width="45" height="46">
<rect x="2.01282" y="1.84961" width="44.6131" height="44.6024" rx="2" fill="#E1E4ED"/>
</mask>
<g mask="url(#mask0_180_2803)">
<line x1="33.1397" y1="-2.18557e-08" x2="33.1397" y2="50.0481" stroke="#B4B9C9"/>
<line x1="41.4474" y1="-2.18557e-08" x2="41.4474" y2="50.0481" stroke="#B4B9C9"/>
<line x1="24.832" y1="-2.18557e-08" x2="24.832" y2="50.0481" stroke="#B4B9C9"/>
<line x1="8.21661" y1="-2.18557e-08" x2="8.21662" y2="50.0481" stroke="#B4B9C9"/>
<line x1="16.5243" y1="-2.18557e-08" x2="16.5243" y2="50.0481" stroke="#B4B9C9"/>
<line x1="-0.692017" y1="16.2163" x2="49.3561" y2="16.2163" stroke="#B4B9C9"/>
<line x1="-0.692017" y1="7.9082" x2="49.3561" y2="7.9082" stroke="#B4B9C9"/>
<line x1="-0.692017" y1="24.5239" x2="49.3561" y2="24.5239" stroke="#B4B9C9"/>
<line x1="-0.692017" y1="41.1392" x2="49.3561" y2="41.1392" stroke="#B4B9C9"/>
<line x1="-0.692017" y1="32.8315" x2="49.3561" y2="32.8315" stroke="#B4B9C9"/>
<rect x="1.08411" y="0.875" width="46.322" height="46.3109" rx="3" fill="url(#paint0_radial_180_2803)"/>
<g filter="url(#filter0_d_180_2803)">
<rect x="14.0713" y="16.1885" width="20.3778" height="18.0419" fill="white"/>
<path d="M13.1335 30.3292L17.3754 24.9333C18.5782 23.4032 20.8791 23.3532 22.1474 24.8295L25.8767 29.1707M22.6562 25.4219C24.2582 23.3841 26.4904 20.4969 26.6357 20.3091C26.6408 20.3024 26.6458 20.296 26.651 20.2894C27.8561 18.7692 30.1496 18.7226 31.4151 20.1956L35.1445 24.5368M16.2228 35.3492H32.4414C34.1476 35.3492 35.5306 33.9662 35.5306 32.26V16.0414C35.5306 14.3353 34.1476 12.9521 32.4414 12.9521H16.2228C14.5166 12.9521 13.1335 14.3353 13.1335 16.0414V32.26C13.1335 33.9662 14.5166 35.3492 16.2228 35.3492Z" fill="white"/>
<path d="M13.1335 30.3292L17.3754 24.9333C18.5782 23.4032 20.8791 23.3532 22.1474 24.8295L25.8767 29.1707M22.6562 25.4219C24.2582 23.3841 26.4904 20.4969 26.6357 20.3091C26.6408 20.3024 26.6458 20.296 26.651 20.2894C27.8561 18.7692 30.1496 18.7226 31.4151 20.1956L35.1445 24.5368M16.2228 35.3492H32.4414C34.1476 35.3492 35.5306 33.9662 35.5306 32.26V16.0414C35.5306 14.3353 34.1476 12.9521 32.4414 12.9521H16.2228C14.5166 12.9521 13.1335 14.3353 13.1335 16.0414V32.26C13.1335 33.9662 14.5166 35.3492 16.2228 35.3492Z" stroke="#6D758F" stroke-width="1.23077" stroke-linecap="round" stroke-linejoin="round"/>
<path d="M32.9479 34.7283H16.0889H15.6918C14.5873 34.7283 13.6918 33.8329 13.6918 32.7283V31.2217C13.6918 30.7638 13.849 30.3197 14.137 29.9637L18.2575 24.8707C19.0428 23.9001 20.5155 23.8782 21.3292 24.825L25.4165 29.5809C25.568 29.7572 25.8062 29.8325 26.0315 29.7752C26.4735 29.6629 26.6418 29.1239 26.3422 28.78L23.4272 25.4333L27.4609 20.2425C28.2308 19.2516 29.7124 19.2063 30.5415 20.1483L34.9479 25.1551V32.7283C34.9479 33.8329 34.0524 34.7283 32.9479 34.7283Z" fill="#E1E4ED"/>
</g>
</g>
<defs>
<filter id="filter0_d_180_2803" x="8.51813" y="9.33691" width="31.6279" height="31.6274" filterUnits="userSpaceOnUse" color-interpolation-filters="sRGB">
<feFlood flood-opacity="0" result="BackgroundImageFix"/>
<feColorMatrix in="SourceAlpha" type="matrix" values="0 0 0 0 0 0 0 0 0 0 0 0 0 0 0 0 0 0 127 0" result="hardAlpha"/>
<feOffset dy="1"/>
<feGaussianBlur stdDeviation="2"/>
<feComposite in2="hardAlpha" operator="out"/>
<feColorMatrix type="matrix" values="0 0 0 0 0.0969792 0 0 0 0 0.127894 0 0 0 0 0.2375 0 0 0 0.08 0"/>
<feBlend mode="normal" in2="BackgroundImageFix" result="effect1_dropShadow_180_2803"/>
<feBlend mode="normal" in="SourceGraphic" in2="effect1_dropShadow_180_2803" result="shape"/>
</filter>
<radialGradient id="paint0_radial_180_2803" cx="0" cy="0" r="1" gradientUnits="userSpaceOnUse" gradientTransform="translate(24.2451 24.0305) rotate(90) scale(23.1555 23.161)">
<stop stop-color="#F6FAFD" stop-opacity="0.28"/>
<stop offset="1" stop-color="#F6FAFD"/>
</radialGradient>
</defs>
</svg>
