<svg width="125" height="28" viewBox="0 0 125 28" fill="none" xmlns="http://www.w3.org/2000/svg">
<path d="M35.9111 22.7317V4.06506H47.3019V7.67797H40.2266V12.6959H47.3019V16.2586H40.2266V22.7317H35.9111Z" fill="white"/>
<path d="M50.1613 22.7315V9.88566H54.2258V12.5452C54.4266 11.6419 54.8782 10.8892 55.5305 10.3875C56.1828 9.88566 56.9355 9.63477 57.7384 9.63477C58.1398 9.63477 58.5413 9.68494 58.7922 9.73512V13.5487C58.2904 13.4986 57.8889 13.4484 57.5879 13.4484C55.3298 13.4484 54.2258 14.9036 54.2258 17.7136V22.6814H50.1613V22.7315Z" fill="white"/>
<path d="M65.8188 23.0327C63.9622 23.0327 62.4568 22.3804 61.403 21.1259C60.2991 19.8714 59.7973 18.2155 59.7973 16.2585C59.7973 14.3015 60.3493 12.6958 61.4532 11.3911C62.5572 10.1366 64.0625 9.48431 65.869 9.48431C66.7722 9.48431 67.5751 9.68503 68.2776 10.0865C68.9801 10.4879 69.5321 10.9897 69.8834 11.6922V9.83557H73.9479V22.6814H69.8834V20.875C69.5321 21.5273 68.9801 22.0291 68.2274 22.4306C67.5249 22.8822 66.7221 23.0327 65.8188 23.0327ZM66.973 19.6707C67.9264 19.6707 68.7292 19.3696 69.231 18.7173C69.7328 18.065 70.0339 17.2621 70.0339 16.3087C70.0339 15.3553 69.783 14.5524 69.231 13.9001C68.6791 13.2478 67.9264 12.9467 66.973 12.9467C66.0697 12.9467 65.317 13.2478 64.7651 13.9001C64.2131 14.5022 63.912 15.3553 63.912 16.3087C63.912 17.3123 64.2131 18.1151 64.7651 18.7675C65.317 19.3696 66.0697 19.6707 66.973 19.6707Z" fill="white"/>
<path d="M77.3091 22.7319V9.88604H81.3737V11.7427C81.6748 11.0903 82.1264 10.5384 82.7787 10.1369C83.431 9.73551 84.1837 9.53479 85.0368 9.53479C87.044 9.53479 88.3988 10.3377 89.0511 11.8932C89.4024 11.1907 89.9544 10.5886 90.6569 10.1871C91.4096 9.73551 92.2124 9.53479 93.1157 9.53479C96.1766 9.53479 97.682 11.2911 97.682 14.7534V22.7319H93.5673V15.5061C93.5673 13.8 92.9149 12.9972 91.6605 12.9972C90.2052 12.9972 89.5027 14.0509 89.5027 16.1584V22.7821H85.4884V15.4559C85.4884 13.8 84.8361 12.947 83.5816 12.947C82.8791 12.947 82.3271 13.1979 81.9758 13.6495C81.6246 14.1011 81.4239 14.9541 81.4239 16.1083V22.7319H77.3091Z" fill="white"/>
<path d="M113.639 15.6065C113.639 16.1584 113.589 16.7104 113.539 17.4129H104.055C104.105 18.266 104.356 18.9183 104.908 19.3699C105.46 19.8215 106.163 20.0724 107.066 20.0724C108.32 20.0724 109.123 19.671 109.474 18.8681H113.489C113.288 20.1226 112.586 21.1764 111.431 21.9291C110.227 22.7319 108.822 23.1334 107.116 23.1334C104.908 23.1334 103.202 22.5312 101.948 21.3269C100.693 20.1226 100.041 18.4667 100.041 16.309C100.041 14.2015 100.693 12.5455 101.948 11.3412C103.202 10.1369 104.908 9.53479 106.966 9.53479C108.973 9.53479 110.578 10.0868 111.833 11.2409C112.987 12.3448 113.639 13.8 113.639 15.6065ZM104.005 14.8538H109.575C109.575 14.0007 109.324 13.3484 108.872 12.8968C108.421 12.4452 107.768 12.1943 106.865 12.1943C106.012 12.1943 105.31 12.4452 104.808 12.947C104.306 13.4488 104.055 14.1011 104.005 14.8538Z" fill="white"/>
<path d="M115.947 22.7315V9.88566H120.012V12.5452C120.213 11.6419 120.664 10.8892 121.316 10.3875C121.969 9.88566 122.721 9.63477 123.524 9.63477C123.926 9.63477 124.327 9.68494 124.578 9.73512V13.5487C124.076 13.4986 123.675 13.4484 123.374 13.4484C121.116 13.4484 120.012 14.9036 120.012 17.7136V22.6814H115.947V22.7315Z" fill="white"/>
<path d="M19.3525 0V9.33333H10.0191L0.68573 0H19.3525ZM0.68573 9.33333H10.0191L19.3525 18.6667H10.0191V28L0.68573 18.6667V9.33333Z" fill="white"/>
</svg>
