<svg width="100" height="28" viewBox="0 0 100 28" fill="none" xmlns="http://www.w3.org/2000/svg">
<path d="M11.3564 4.73926V12.5989H4.13567V4.73926H0.709869V23.5013H4.1366V15.8967H11.3555V23.5013H14.7831V4.73926H11.3564ZM25.7514 17.4371C25.7514 18.1891 25.4527 18.9103 24.9209 19.4421C24.3892 19.9738 23.668 20.2725 22.9159 20.2725C22.1639 20.2725 21.4427 19.9738 20.9109 19.4421C20.3792 18.9103 20.0804 18.1891 20.0804 17.4371V9.40031H16.8299V17.4371C16.8299 19.0496 17.4705 20.596 18.6107 21.7362C19.7509 22.8764 21.2974 23.517 22.9099 23.517C24.5224 23.517 26.0689 22.8764 27.2091 21.7362C28.3493 20.596 28.9899 19.0496 28.9899 17.4371V9.40031H25.7514V17.4371ZM49.8369 10.2285C49.8369 8.5805 50.9266 8.05838 52.1201 8.05838C53.0828 8.05838 54.3533 8.79102 55.1852 9.67946L57.3135 7.16994C56.2507 5.73249 54.0955 4.73926 52.3306 4.73926C48.8037 4.73926 46.2534 6.80455 46.2534 10.2285C46.2534 16.5811 54.0176 14.5649 54.0176 18.1205C54.0176 19.2167 52.9529 20.1849 51.7343 20.1849C49.8118 20.1849 49.1886 19.2455 48.3057 18.2513L45.9427 20.708C47.4544 22.5627 49.3185 23.505 51.5507 23.505C54.9014 23.505 57.5964 21.4146 57.5964 18.1465C57.5964 11.0947 49.8313 13.2861 49.8313 10.2285M97.8705 20.5039C95.9498 20.5039 95.4036 19.673 95.4036 18.4006V12.7667H98.3898V9.91223H95.4036V6.14611L92.1076 7.62529V19.1008C92.1076 22.036 94.1331 23.5152 96.9097 23.5152C97.3456 23.5226 97.7814 23.4873 98.2099 23.4113L99.014 20.4511C98.6513 20.4761 98.2349 20.5012 97.8705 20.5012M38.1248 9.49398C36.5148 9.49398 35.3908 9.96138 34.3039 11.027V4.85147H31.0487V16.2982C31.0487 20.5828 34.1462 23.5189 37.6277 23.5189C41.4894 23.5189 44.8864 20.5308 44.8864 16.5078C44.8864 12.5349 41.7602 9.49676 38.1248 9.49676M38.1044 20.2424C37.6192 20.2424 37.1388 20.1469 36.6906 19.9612C36.2424 19.7755 35.8352 19.5034 35.4921 19.1604C35.1491 18.8173 34.877 18.4101 34.6913 17.9619C34.5056 17.5137 34.4101 17.0333 34.4101 16.5482C34.4101 16.063 34.5056 15.5826 34.6913 15.1344C34.877 14.6862 35.1491 14.279 35.4921 13.9359C35.8352 13.5929 36.2424 13.3208 36.6906 13.1351C37.1388 12.9495 37.6192 12.8539 38.1044 12.8539C39.0842 12.8539 40.0238 13.2431 40.7166 13.9359C41.4094 14.6287 41.7987 15.5684 41.7987 16.5482C41.7987 17.5279 41.4094 18.4676 40.7166 19.1604C40.0238 19.8532 39.0842 20.2424 38.1044 20.2424ZM73.4771 16.3372C73.4771 12.3067 70.0875 9.32612 66.2184 9.32612C62.7379 9.32612 59.6395 12.2613 59.6395 16.5468V28H62.8946V21.8162C63.9797 22.8799 65.1055 23.3492 66.7136 23.3492C70.349 23.3492 73.4762 20.311 73.4762 16.3372M70.3945 16.2964C70.3945 17.2761 70.0053 18.2158 69.3124 18.9086C68.6196 19.6014 67.68 19.9906 66.7002 19.9906C65.7204 19.9906 64.7808 19.6014 64.0879 18.9086C63.3951 18.2158 63.0059 17.2761 63.0059 16.2964C63.0059 15.3166 63.3951 14.3769 64.0879 13.6841C64.7808 12.9913 65.7204 12.6021 66.7002 12.6021C67.68 12.6021 68.6196 12.9913 69.3124 13.6841C70.0053 14.3769 70.3945 15.3166 70.3945 16.2964Z" fill="white"/>
<path d="M83.9623 9.04389V5.77299C84.3946 5.57098 84.7605 5.25035 85.0177 4.84844C85.2748 4.44653 85.4124 3.97985 85.4146 3.50274V3.42763C85.4146 2.03654 84.2869 0.908839 82.8958 0.908839H82.8207C82.1527 0.908839 81.512 1.17421 81.0396 1.64657C80.5673 2.11894 80.3019 2.7596 80.3019 3.42763V3.50274C80.3041 3.97985 80.4418 4.44653 80.6989 4.84844C80.956 5.25035 81.322 5.57098 81.7542 5.77299V9.04389C80.5119 9.23411 79.3419 9.74919 78.3627 10.537L69.392 3.55004C69.456 3.31912 69.4894 3.08171 69.4931 2.84337C69.4942 2.28203 69.3288 1.73297 69.0178 1.26564C68.7068 0.798317 68.2642 0.433721 67.746 0.217973C67.2277 0.00222378 66.6571 -0.0549848 66.1064 0.0535831C65.5556 0.162151 65.0495 0.431618 64.6519 0.827899C64.2543 1.22418 63.9832 1.72947 63.8728 2.27986C63.7624 2.83025 63.8178 3.401 64.0318 3.91993C64.2459 4.43886 64.609 4.88265 65.0754 5.19517C65.5417 5.50768 66.0902 5.67488 66.6515 5.67561C67.1426 5.6733 67.6245 5.5422 68.0491 5.29539L76.8826 12.1692C76.089 13.368 75.675 14.778 75.6946 16.2156C75.7141 17.6531 76.1662 19.0514 76.992 20.2282L74.3053 22.9158C74.0882 22.8463 73.8619 22.8094 73.6339 22.8063C73.1731 22.8067 72.7228 22.9436 72.3398 23.1999C71.9569 23.4561 71.6584 23.8201 71.4823 24.2459C71.3061 24.6716 71.2601 25.1401 71.3501 25.592C71.4401 26.0439 71.662 26.459 71.9878 26.7848C72.3136 27.1106 72.7287 27.3325 73.1806 27.4225C73.6325 27.5125 74.101 27.4665 74.5268 27.2903C74.9525 27.1142 75.3165 26.8158 75.5728 26.4328C75.829 26.0498 75.9659 25.5995 75.9663 25.1387C75.9633 24.9107 75.9264 24.6844 75.8569 24.4673L78.5148 21.8085C79.3815 22.4757 80.3895 22.9357 81.4615 23.1533C82.5335 23.3708 83.641 23.3401 84.6993 23.0635C85.7575 22.7869 86.7385 22.2717 87.5669 21.5574C88.3953 20.8431 89.0492 19.9487 89.4786 18.9427C89.9079 17.9367 90.1013 16.8457 90.0439 15.7534C89.9864 14.6611 89.6798 13.5964 89.1473 12.6409C88.6149 11.6854 87.8708 10.8645 86.972 10.241C86.0733 9.61753 85.0438 9.20803 83.9623 9.04389ZM82.8606 19.8016C82.3694 19.8151 81.8804 19.73 81.4226 19.5514C80.9649 19.3727 80.5475 19.1042 80.1953 18.7615C79.8431 18.4188 79.5631 18.0091 79.372 17.5564C79.1808 17.1037 79.0823 16.6173 79.0823 16.1259C79.0823 15.6345 79.1808 15.1481 79.372 14.6954C79.5631 14.2427 79.8431 13.8329 80.1953 13.4903C80.5475 13.1476 80.9649 12.879 81.4226 12.7004C81.8804 12.5217 82.3694 12.4367 82.8606 12.4502C83.8126 12.4835 84.7146 12.885 85.3765 13.5702C86.0384 14.2553 86.4085 15.1705 86.409 16.1232C86.4095 17.0758 86.0403 17.9914 85.379 18.6772C84.7178 19.363 83.8163 19.7654 82.8643 19.7997" fill="white"/>
</svg>
