<svg width="35" height="36" viewBox="0 0 35 36" fill="none" xmlns="http://www.w3.org/2000/svg">
<path fill-rule="evenodd" clip-rule="evenodd" d="M8.69824 18C8.69824 14.5047 8.69824 12.7571 9.52621 11.4983C9.89594 10.9362 10.3745 10.4548 10.9333 10.0829C12.1846 9.25 13.9219 9.25 17.3965 9.25C20.8711 9.25 22.6084 9.25 23.8597 10.0829C24.4185 10.4548 24.897 10.9362 25.2667 11.4983C26.0947 12.7571 26.0947 14.5047 26.0947 18C26.0947 21.4953 26.0947 23.2429 25.2667 24.5017C24.897 25.0638 24.4185 25.5452 23.8597 25.9171C22.6084 26.75 20.8711 26.75 17.3965 26.75C13.9219 26.75 12.1846 26.75 10.9333 25.9171C10.3745 25.5452 9.89594 25.0638 9.52621 24.5017C8.69824 23.2429 8.69824 21.4953 8.69824 18ZM21.8995 18.0002C21.8995 20.5021 19.8833 22.5302 17.3963 22.5302C14.9093 22.5302 12.8931 20.5021 12.8931 18.0002C12.8931 15.4984 14.9093 13.4702 17.3963 13.4702C19.8833 13.4702 21.8995 15.4984 21.8995 18.0002ZM17.3963 20.9976C19.0419 20.9976 20.3759 19.6556 20.3759 18.0002C20.3759 16.3448 19.0419 15.0029 17.3963 15.0029C15.7507 15.0029 14.4167 16.3448 14.4167 18.0002C14.4167 19.6556 15.7507 20.9976 17.3963 20.9976ZM22.0773 14.3071C22.6617 14.3071 23.1355 13.8305 23.1355 13.2426C23.1355 12.6548 22.6617 12.1782 22.0773 12.1782C21.493 12.1782 21.0192 12.6548 21.0192 13.2426C21.0192 13.8305 21.493 14.3071 22.0773 14.3071Z" fill="white"/>
</svg>
