<svg width="35" height="35" viewBox="0 0 35 35" fill="none" xmlns="http://www.w3.org/2000/svg">
<path fill-rule="evenodd" clip-rule="evenodd" d="M8.69824 17.5C8.69824 14.0047 8.69824 12.2571 9.52621 10.9983C9.89594 10.4362 10.3745 9.95482 10.9333 9.58289C12.1846 8.75 13.9219 8.75 17.3965 8.75C20.8711 8.75 22.6084 8.75 23.8597 9.58289C24.4185 9.95482 24.897 10.4362 25.2667 10.9983C26.0947 12.2571 26.0947 14.0047 26.0947 17.5C26.0947 20.9953 26.0947 22.7429 25.2667 24.0017C24.897 24.5638 24.4185 25.0452 23.8597 25.4171C22.6084 26.25 20.8711 26.25 17.3965 26.25C13.9219 26.25 12.1846 26.25 10.9333 25.4171C10.3745 25.0452 9.89594 24.5638 9.52621 24.0017C8.69824 22.7429 8.69824 20.9953 8.69824 17.5ZM21.8995 17.5002C21.8995 20.0021 19.8833 22.0302 17.3963 22.0302C14.9093 22.0302 12.8931 20.0021 12.8931 17.5002C12.8931 14.9984 14.9093 12.9702 17.3963 12.9702C19.8833 12.9702 21.8995 14.9984 21.8995 17.5002ZM17.3963 20.4976C19.0419 20.4976 20.3759 19.1556 20.3759 17.5002C20.3759 15.8448 19.0419 14.5029 17.3963 14.5029C15.7507 14.5029 14.4167 15.8448 14.4167 17.5002C14.4167 19.1556 15.7507 20.4976 17.3963 20.4976ZM22.0773 13.8071C22.6617 13.8071 23.1355 13.3305 23.1355 12.7426C23.1355 12.1548 22.6617 11.6782 22.0773 11.6782C21.493 11.6782 21.0192 12.1548 21.0192 12.7426C21.0192 13.3305 21.493 13.8071 22.0773 13.8071Z" fill="white"/>
</svg>
