<svg width="37" height="37" viewBox="0 0 37 37" fill="none" xmlns="http://www.w3.org/2000/svg">
<path opacity="0.1" fill-rule="evenodd" clip-rule="evenodd" d="M18.5 36C28.165 36 36 28.165 36 18.5C36 8.83502 28.165 1 18.5 1C8.83502 1 1 8.83502 1 18.5C1 28.165 8.83502 36 18.5 36Z" stroke="white" strokeWidth="0"/>
<path d="M22.3333 14.6665C23.6593 14.6665 24.9311 15.1933 25.8688 16.131C26.8065 17.0687 27.3333 18.3404 27.3333 19.6665V25.4998H23.9999V19.6665C23.9999 19.2245 23.8243 18.8006 23.5118 18.488C23.1992 18.1754 22.7753 17.9998 22.3333 17.9998C21.8912 17.9998 21.4673 18.1754 21.1547 18.488C20.8422 18.8006 20.6666 19.2245 20.6666 19.6665V25.4998H17.3333V19.6665C17.3333 18.3404 17.86 17.0687 18.7977 16.131C19.7354 15.1933 21.0072 14.6665 22.3333 14.6665Z" fill="white"/>
<path d="M14.0001 15.5H10.6667V25.5H14.0001V15.5Z" fill="white"/>
<path d="M12.3334 12.9998C13.2539 12.9998 14.0001 12.2536 14.0001 11.3332C14.0001 10.4127 13.2539 9.6665 12.3334 9.6665C11.4129 9.6665 10.6667 10.4127 10.6667 11.3332C10.6667 12.2536 11.4129 12.9998 12.3334 12.9998Z" fill="white"/>
</svg>
