<svg width="56" height="56" viewBox="0 0 56 56" fill="none" xmlns="http://www.w3.org/2000/svg">
<g filter="url(#filter0_d_9_364)">
<rect x="4" y="3" width="48" height="48" rx="4" fill="white"/>
<rect x="4.76923" y="3.76923" width="46.4615" height="46.4615" rx="3.23077" stroke="#696969" strokeWidth="1.53846"/>
</g>
<mask id="mask0_9_364" style="mask-type:alpha" maskUnits="userSpaceOnUse" x="5" y="4" width="46" height="46">
<rect x="5.68091" y="4.84961" width="44.6131" height="44.6024" rx="2" fill="#F1F4FF"/>
</mask>
<g mask="url(#mask0_9_364)">
<line x1="36.8079" y1="3" x2="36.8079" y2="53.0481" stroke="#A58D71"/>
<line x1="45.1155" y1="3" x2="45.1155" y2="53.0481" stroke="#A58D71"/>
<line x1="28.5002" y1="3" x2="28.5002" y2="53.0481" stroke="#A58D71"/>
<line x1="11.8848" y1="3" x2="11.8848" y2="53.0481" stroke="#A58D71"/>
<line x1="20.1924" y1="3" x2="20.1924" y2="53.0481" stroke="#A58D71"/>
<line x1="2.97607" y1="19.2163" x2="53.0242" y2="19.2163" stroke="#A58D71"/>
<line x1="2.97607" y1="10.9082" x2="53.0242" y2="10.9082" stroke="#A58D71"/>
<line x1="2.97607" y1="27.5239" x2="53.0242" y2="27.5239" stroke="#A58D71"/>
<line x1="2.97607" y1="44.1392" x2="53.0242" y2="44.1392" stroke="#A58D71"/>
<line x1="2.97607" y1="35.8315" x2="53.0242" y2="35.8315" stroke="#A58D71"/>
<rect x="5.41211" y="4.53467" width="45.0024" height="44.9916" rx="2" fill="url(#paint0_radial_9_364)"/>
<path d="M20.641 17.986C24.7053 13.9218 31.2947 13.9218 35.359 17.986C39.4232 22.0503 39.4232 28.6397 35.359 32.704L28.3074 39.7556C28.1376 39.9253 27.8624 39.9253 27.6926 39.7556L20.641 32.704C16.5768 28.6397 16.5768 22.0503 20.641 17.986Z" fill="white" stroke="#696969" strokeWidth="1.23"/>
<circle cx="28.1875" cy="25.2188" r="3.53125" fill="#A58D71" stroke="#696969"/>
</g>
<defs>
<filter id="filter0_d_9_364" x="0" y="0" width="56" height="56" filterUnits="userSpaceOnUse" color-interpolation-filters="sRGB">
<feFlood flood-opacity="0" result="BackgroundImageFix"/>
<feColorMatrix in="SourceAlpha" type="matrix" values="0 0 0 0 0 0 0 0 0 0 0 0 0 0 0 0 0 0 127 0" result="hardAlpha"/>
<feOffset dy="1"/>
<feGaussianBlur stdDeviation="2"/>
<feComposite in2="hardAlpha" operator="out"/>
<feColorMatrix type="matrix" values="0 0 0 0 0.305882 0 0 0 0 0.623529 0 0 0 0 1 0 0 0 0.2 0"/>
<feBlend mode="normal" in2="BackgroundImageFix" result="effect1_dropShadow_9_364"/>
<feBlend mode="normal" in="SourceGraphic" in2="effect1_dropShadow_9_364" result="shape"/>
</filter>
<radialGradient id="paint0_radial_9_364" cx="0" cy="0" r="1" gradientUnits="userSpaceOnUse" gradientTransform="translate(27.9133 27.0305) rotate(90) scale(22.4958 22.5012)">
<stop stop-color="#F6FAFD" stop-opacity="0.28"/>
<stop offset="1" stop-color="white"/>
</radialGradient>
</defs>
</svg>
