<svg xmlns="http://www.w3.org/2000/svg" width="76.717" height="70.282" viewBox="0 0 76.717 70.282">
  <path id="Trazado_136" data-name="Trazado 136" d="M578.577,366.522a9.673,9.673,0,0,1,5.488-1.313,9.892,9.892,0,0,1,6.085,1.615,6,6,0,0,1,2.609,3.632c.341,1.516.025,8.438.185,9.07-1.782-.618-2.609-.479-6.3-1.764a62.405,62.405,0,0,1-7.309-2.687c-1.747-.905-3.429-2.385-3.28-4.92A5.028,5.028,0,0,1,578.577,366.522ZM576.1,411.407c0-2.215-.646-3.369-2.883-3.369h-8.648c-1.555-.007-3.731,2.705-4.231,3.227q-2.678,2.8-7.53,2.8a10.229,10.229,0,0,1-8.413-3.852q-3.1-3.85-3.1-10.845,0-7.082,3.1-10.934a10.208,10.208,0,0,1,8.413-3.852c2.478,0,5.4.359,6.986,1.683,1.789,1.491,2.371,3.681,2.9,5.133,1.072,2.925.827,5.158,3.22,8.509a19.383,19.383,0,0,0,8.019,6.237,27.406,27.406,0,0,0,11.441,2.3,25.936,25.936,0,0,0,15.311-5.474A13.309,13.309,0,0,0,605.6,395.3l.046-24.061a17.209,17.209,0,0,0-6.1-12.521q-5.533-4.643-14.817-4.64a26.757,26.757,0,0,0-10.927,2.059,16.731,16.731,0,0,0-7.128,5.627,13.476,13.476,0,0,0-2.485,7.877,13.728,13.728,0,0,0,1.427,6.518,25.731,25.731,0,0,0-12.432-2.84,24.821,24.821,0,0,0-12.574,3.145,22.133,22.133,0,0,0-8.587,8.854,27.5,27.5,0,0,0-3.1,13.323,29.43,29.43,0,0,0,3.1,13.326c4.327,8.708,13.255,11.921,17.107,12.2,4.86.355,12.041.621,18.264-3.241A23.249,23.249,0,0,0,576.1,411.407Zm15.165-14.256a8.583,8.583,0,0,1-5.669,1.942c-2.563,0-5.666-.3-7.906-2.091a13.755,13.755,0,0,1-4.771-7.753,30.561,30.561,0,0,1-.281-6.148,4.413,4.413,0,0,0,.461.206,64.027,64.027,0,0,0,9.067,2.659,39.777,39.777,0,0,1,7.309,2.385c1.111.547,3.578,2.087,3.578,4.477a4.679,4.679,0,0,1-1.789,4.324Z" transform="translate(-528.931 -354.083)" fill="#8c662a"/>
</svg>