<svg width="48" height="48" viewBox="0 0 48 48" fill="none" xmlns="http://www.w3.org/2000/svg">
<rect x="0.769231" y="0.769231" width="46.4615" height="46.4615" rx="3.23077" fill="#F1F3F7" stroke="#737373" strokeWidth="1.53846"/>
<mask id="mask0_9_354" style="mask-type:alpha" maskUnits="userSpaceOnUse" x="1" y="1" width="46" height="46">
<rect x="1.68091" y="1.84961" width="44.6131" height="44.6024" rx="4" fill="#E3EFFF"/>
</mask>
<g mask="url(#mask0_9_354)">
<line x1="32.8207" y1="-2.24161e-08" x2="32.8207" y2="50.0481" stroke="#A58D71" strokeWidth="1.02564"/>
<line x1="41.1283" y1="-2.24161e-08" x2="41.1283" y2="50.0481" stroke="#A58D71" strokeWidth="1.02564"/>
<line x1="24.5131" y1="-2.24161e-08" x2="24.5131" y2="50.0481" stroke="#A58D71" strokeWidth="1.02564"/>
<line x1="7.89759" y1="-2.24161e-08" x2="7.89759" y2="50.0481" stroke="#A58D71" strokeWidth="1.02564"/>
<line x1="16.2052" y1="-2.24161e-08" x2="16.2052" y2="50.0481" stroke="#A58D71" strokeWidth="1.02564"/>
<line x1="-1.02393" y1="16.2035" x2="49.0242" y2="16.2035" stroke="#A58D71" strokeWidth="1.02564"/>
<line x1="-1.02393" y1="7.89538" x2="49.0242" y2="7.89538" stroke="#A58D71" strokeWidth="1.02564"/>
<line x1="-1.02393" y1="24.5111" x2="49.0242" y2="24.5111" stroke="#A58D71" strokeWidth="1.02564"/>
<line x1="-1.02393" y1="41.1263" x2="49.0242" y2="41.1263" stroke="#A58D71" strokeWidth="1.02564"/>
<line x1="-1.02393" y1="32.8187" x2="49.0242" y2="32.8187" stroke="#A58D71" strokeWidth="1.02564"/>
<rect x="1.41211" y="1.53467" width="45.0024" height="44.9916" rx="2" fill="url(#paint0_radial_9_354)"/>
</g>
<g filter="url(#filter0_d_9_354)">
<path d="M13.2546 17.8969C13.2546 16.2598 14.5818 14.9326 16.2189 14.9326H31.7812C33.4184 14.9326 34.7454 16.2598 34.7454 17.8969V29.6617C34.7454 31.2989 33.4184 32.626 31.7812 32.626H16.2189C14.5818 32.626 13.2546 31.2989 13.2546 29.6617L13.2546 17.8969Z" fill="white" stroke="#737373" strokeWidth="1.23077" strokeLinecap="round" strokeLinejoin="round"/>
<path d="M14.3999 15.5303L22.6078 22.9007C23.3965 23.6089 24.595 23.5996 25.3725 22.879L33.3029 15.5303" fill="#A58D71"/>
<path d="M14.3999 15.7134L22.6078 23.0838C23.3965 23.792 24.595 23.7827 25.3725 23.0621L33.3029 15.7134" stroke="#737373" strokeWidth="1.23077" strokeLinecap="round" strokeLinejoin="round"/>
</g>
<defs>
<filter id="filter0_d_9_354" x="8.63916" y="11.3174" width="30.7217" height="26.9238" filterUnits="userSpaceOnUse" color-interpolation-filters="sRGB">
<feFlood flood-opacity="0" result="BackgroundImageFix"/>
<feColorMatrix in="SourceAlpha" type="matrix" values="0 0 0 0 0 0 0 0 0 0 0 0 0 0 0 0 0 0 127 0" result="hardAlpha"/>
<feOffset dy="1"/>
<feGaussianBlur stdDeviation="2"/>
<feComposite in2="hardAlpha" operator="out"/>
<feColorMatrix type="matrix" values="0 0 0 0 0.0969792 0 0 0 0 0.127894 0 0 0 0 0.2375 0 0 0 0.08 0"/>
<feBlend mode="normal" in2="BackgroundImageFix" result="effect1_dropShadow_9_354"/>
<feBlend mode="normal" in="SourceGraphic" in2="effect1_dropShadow_9_354" result="shape"/>
</filter>
<radialGradient id="paint0_radial_9_354" cx="0" cy="0" r="1" gradientUnits="userSpaceOnUse" gradientTransform="translate(23.9133 24.0305) rotate(90) scale(22.4958 22.5012)">
<stop stop-color="#F6FAFD" stop-opacity="0.28"/>
<stop offset="1" stop-color="white"/>
</radialGradient>
</defs>
</svg>
