<svg width="113" height="30" viewBox="0 0 113 30" fill="none" xmlns="http://www.w3.org/2000/svg">
<path d="M36.3189 23.1996L37.7272 19.9289C39.249 21.0645 41.2705 21.6551 43.2693 21.6551C44.7457 21.6551 45.677 21.0873 45.677 20.2242C45.6543 17.8166 36.8413 19.7018 36.7732 13.6601C36.7505 10.5938 39.4761 8.23169 43.3375 8.23169C45.6316 8.23169 47.9256 8.79951 49.561 10.0942L48.2436 13.433C46.7445 12.479 44.882 11.7976 43.1103 11.7976C41.9065 11.7976 41.1115 12.3655 41.1115 13.0923C41.1342 15.4544 50.0153 14.1598 50.1062 19.9289C50.1062 23.0633 47.4487 25.2665 43.6327 25.2665C40.8389 25.2665 38.2723 24.6078 36.3189 23.1996Z" fill="white"/>
<path d="M90.355 18.7478C89.6508 19.9743 88.3334 20.8147 86.8116 20.8147C84.5629 20.8147 82.7458 18.9977 82.7458 16.7491C82.7458 14.5005 84.5629 12.6834 86.8116 12.6834C88.3334 12.6834 89.6508 13.5238 90.355 14.7503L94.239 12.5926C92.7853 10.0033 89.9915 8.23169 86.8116 8.23169C82.1099 8.23169 78.2939 12.0475 78.2939 16.7491C78.2939 21.4507 82.1099 25.2665 86.8116 25.2665C90.0142 25.2665 92.7853 23.5176 94.239 20.9056L90.355 18.7478Z" fill="white"/>
<path d="M52.0614 1.16754H56.9221V24.9481H52.0614V1.16754Z" fill="white"/>
<path d="M96.1464 1.16754V24.9481H101.007V17.8162L106.776 24.9481H113L105.663 16.4761L112.455 8.57199H106.504L101.007 15.1361V1.16754H96.1464Z" fill="white"/>
<path d="M71.3662 18.7932C70.662 19.9516 69.2083 20.8147 67.573 20.8147C65.3243 20.8147 63.5072 18.9977 63.5072 16.7491C63.5072 14.5005 65.3243 12.6834 67.573 12.6834C69.2083 12.6834 70.662 13.592 71.3662 14.773V18.7932ZM71.3662 8.57238V10.503C70.5712 9.16292 68.5951 8.23169 66.5281 8.23169C62.2579 8.23169 58.8963 12.0021 58.8963 16.7264C58.8963 21.4507 62.2579 25.2665 66.5281 25.2665C68.5951 25.2665 70.5712 24.3352 71.3662 22.9952V24.9258H76.2269V8.57238H71.3662Z" fill="white"/>
<path d="M6.26871 18.7703C6.26871 20.4284 4.9286 21.7685 3.27049 21.7685C1.61239 21.7685 0.272278 20.4284 0.272278 18.7703C0.272278 17.1123 1.61239 15.7722 3.27049 15.7722H6.26871V18.7703Z" fill="white"/>
<path d="M7.76837 18.7703C7.76837 17.1123 9.10848 15.7722 10.7666 15.7722C12.4247 15.7722 13.7648 17.1123 13.7648 18.7703V26.2656C13.7648 27.9237 12.4247 29.2638 10.7666 29.2638C9.10848 29.2638 7.76837 27.9237 7.76837 26.2656V18.7703Z" fill="white"/>
<path d="M10.7666 6.73257C9.10848 6.73257 7.76837 5.3925 7.76837 3.73445C7.76837 2.0764 9.10848 0.736328 10.7666 0.736328C12.4247 0.736328 13.7648 2.0764 13.7648 3.73445V6.73257H10.7666Z" fill="white"/>
<path d="M10.7665 8.25458C12.4246 8.25458 13.7647 9.59465 13.7647 11.2527C13.7647 12.9107 12.4246 14.2508 10.7665 14.2508H3.24822C1.59011 14.2508 0.25 12.9107 0.25 11.2527C0.25 9.59465 1.59011 8.25458 3.24822 8.25458H10.7665Z" fill="white"/>
<path d="M22.7828 11.2527C22.7828 9.59465 24.1229 8.25458 25.7811 8.25458C27.4392 8.25458 28.7793 9.59465 28.7793 11.2527C28.7793 12.9107 27.4392 14.2508 25.7811 14.2508H22.7828V11.2527Z" fill="white"/>
<path d="M21.2832 11.2525C21.2832 12.9105 19.9431 14.2506 18.285 14.2506C16.6269 14.2506 15.2867 12.9105 15.2867 11.2525V3.73445C15.2867 2.0764 16.6269 0.736328 18.285 0.736328C19.9431 0.736328 21.2832 2.0764 21.2832 3.73445V11.2525Z" fill="white"/>
<path d="M18.2847 23.2674C19.9428 23.2674 21.2829 24.6075 21.2829 26.2655C21.2829 27.9236 19.9428 29.2636 18.2847 29.2636C16.6266 29.2636 15.2864 27.9236 15.2864 26.2655V23.2674H18.2847Z" fill="white"/>
<path d="M18.2847 21.7682C16.6266 21.7682 15.2864 20.4281 15.2864 18.7701C15.2864 17.112 16.6266 15.772 18.2847 15.772H25.8029C27.461 15.772 28.8011 17.112 28.8011 18.7701C28.8011 20.4281 27.461 21.7682 25.8029 21.7682H18.2847Z" fill="white"/>
</svg>
