<svg id="Group_458" data-name="Group 458" xmlns="http://www.w3.org/2000/svg" xmlns:xlink="http://www.w3.org/1999/xlink" width="46.447" height="49.619" viewBox="0 0 46.447 49.619">
  <defs>
    <clipPath id="clip-path">
      <rect id="Rectangle_735" data-name="Rectangle 735" width="46.447" height="49.619" fill="#fff"/>
    </clipPath>
  </defs>
  <g id="Group_400" data-name="Group 400" clip-path="url(#clip-path)">
    <path id="Path_892" data-name="Path 892" d="M.077,49.619C.049,49.049.006,48.576.006,48.1,0,38.333-.019,28.565.044,18.8a3.9,3.9,0,0,1,.929-2.372c4.684-5.111,9.44-10.148,14.177-15.2.19-.2.408-.377.71-.654l3.188,3.2L21.576,0c1.153,1.282,1.891,2.051,2.569,2.874.507.616.932.69,1.44.026.658-.86,1.343-1.7,2.087-2.631l18.2,19.686-.121.39c-2.088,0-4.189-.148-6.262.04a5.743,5.743,0,0,1-5.483-2.378c-1.816-2.284-3.906-4.326-6.228-6.856-1.069,1.311-1.908,2.456-2.86,3.485q-3.793,4.1-7.676,8.111a2.922,2.922,0,0,0-.865,2.283c.056,5.368.068,10.737,0,16.1-.018,1.374.333,1.808,1.675,1.8,8.894-.059,17.788-.03,26.683-.03h1.71v6.715ZM21.74,3.282c-4.967,5.4-9.734,10.565-14.451,15.775a2.943,2.943,0,0,0-.6,1.8c-.037,8.418-.024,16.837-.017,25.255,0,.425.051.849.076,1.248,2.3.448,2.373.384,2.374-1.9,0-7.79.019-15.579-.022-23.368a3.364,3.364,0,0,1,1-2.541c4.132-4.4,8.218-8.842,12.317-13.274.312-.337.6-.693,1.041-1.2l-1.713-1.8M4.422,47.473V45.831c0-7.5.145-15-.067-22.495C4.266,20.2,4.787,17.7,7.3,15.819a20.293,20.293,0,0,0,2.256-2.334c2.6-2.718,5.2-5.434,7.883-8.233L16.115,3.644a6.278,6.278,0,0,0-.681.5C11.2,8.645,6.964,13.134,2.778,17.68a2.909,2.909,0,0,0-.57,1.8c-.035,8.9-.025,17.8-.02,26.706,0,.417.053.834.084,1.288Z" transform="translate(0)" fill="#fff"/>
    <path id="Path_893" data-name="Path 893" d="M93.57,97.172c-.636.041-1.127.1-1.619.1-8.393.007-16.787-.015-25.18.032-1.156.007-1.615-.243-1.59-1.584.079-4.348.029-8.7.029-13.152a10.284,10.284,0,0,1,1.116-.127q12.521,0,25.042.015c2.17,0,2.17.033,2.175,2.3q.013,5.37.027,10.741c0,.52,0,1.04,0,1.676" transform="translate(-47.155 -58.402)" fill="#fff"/>
  </g>
</svg>
