<?xml version="1.0" encoding="UTF-8"?>
<svg width="442px" height="193px" viewBox="0 0 442 193" version="1.1" xmlns="http://www.w3.org/2000/svg" xmlns:xlink="http://www.w3.org/1999/xlink">
    <title>SVIT-Logo-STWE_CMYK</title>
    <defs>
        <polygon id="path-1" points="-1.11022302e-16 1.42108547e-14 30.874 1.42108547e-14 30.874 37.167 -1.11022302e-16 37.167"></polygon>
        <polygon id="path-3" points="-2.84217094e-14 1.42108547e-14 125.174 1.42108547e-14 125.174 37.167 -2.84217094e-14 37.167"></polygon>
        <polygon id="path-5" points="0 0 272.133 0 272.133 139.418 0 139.418"></polygon>
    </defs>
    <g id="SVIT-Logo-STWE_CMYK" stroke="none" stroke-width="1" fill="none" fill-rule="evenodd">
        <g id="Group-3" transform="translate(0.285000, 155.773000)">
            <mask id="mask-2" fill="white">
                <use xlink:href="#path-1"></use>
            </mask>
            <g id="Clip-2"></g>
            <path d="M26.158,11.019 C25.662,4.963 20.748,3.375 15.04,3.375 C9.332,3.375 5.013,5.608 5.013,9.629 C5.013,14.245 9.332,15.338 17.969,16.777 C24.421,17.869 30.874,19.358 30.874,26.158 C30.874,34.844 22.981,37.227 16.082,37.227 C7.097,37.227 0.546,34.15 -1.11022302e-16,24.62 L3.673,24.62 C4.318,32.065 9.282,33.852 16.082,33.852 C21.393,33.852 26.903,32.413 26.903,26.803 C26.903,21.393 20.45,20.748 13.998,19.706 C5.559,18.365 1.042,15.982 1.042,10.274 C1.042,2.531 8.19,1.42108547e-14 15.04,1.42108547e-14 C22.287,1.42108547e-14 29.584,2.581 29.832,11.019 L26.158,11.019" id="Fill-1" fill="white" mask="url(#mask-2)"></path>
        </g>
        <polyline id="Fill-4" fill="white" points="49.321 160.041 35.423 160.041 35.423 156.666 66.892 156.666 66.892 160.041 52.995 160.041 52.995 192.107 49.321 192.107 49.321 160.041"></polyline>
        <polyline id="Fill-5" fill="white" points="119.006 156.666 122.978 156.666 111.065 192.107 106.796 192.107 96.125 161.828 96.025 161.828 85.502 192.107 81.233 192.107 69.469 156.666 73.59 156.666 83.418 187.242 83.516 187.242 93.99 156.666 98.507 156.666 108.98 187.242 109.08 187.242 119.006 156.666"></polyline>
        <g id="Group-10" transform="translate(129.523000, 155.773000)">
            <mask id="mask-4" fill="white">
                <use xlink:href="#path-3"></use>
            </mask>
            <g id="Clip-7"></g>
            <polyline id="Fill-6" fill="white" mask="url(#mask-4)" points="-2.84217094e-14 0.893 28.193 0.893 28.193 4.268 3.673 4.268 3.673 16.28 27.3 16.28 27.3 19.656 3.673 19.656 3.673 32.959 28.591 32.959 28.591 36.334 -2.84217094e-14 36.334 -2.84217094e-14 0.893"></polyline>
            <path d="M77.675,11.019 C77.179,4.963 72.265,3.375 66.557,3.375 C60.849,3.375 56.53,5.608 56.53,9.629 C56.53,14.245 60.849,15.338 69.485,16.777 C75.938,17.869 82.391,19.358 82.391,26.158 C82.391,34.844 74.498,37.227 67.599,37.227 C58.614,37.227 52.063,34.15 51.517,24.62 L55.19,24.62 C55.835,32.065 60.799,33.852 67.599,33.852 C72.91,33.852 78.42,32.413 78.42,26.803 C78.42,21.393 71.967,20.748 65.515,19.706 C57.076,18.365 52.559,15.982 52.559,10.274 C52.559,2.531 59.707,1.42108547e-14 66.557,1.42108547e-14 C73.804,1.42108547e-14 81.101,2.581 81.349,11.019 L77.675,11.019" id="Fill-8" fill="white" mask="url(#mask-4)"></path>
            <path d="M125.174,22.833 C124.38,30.774 117.827,37.227 107.652,37.227 C96.137,37.227 88.79,29.98 88.79,18.613 C88.79,10.522 93.804,1.42108547e-14 107.652,1.42108547e-14 C115.396,1.42108547e-14 123.784,3.524 124.876,12.855 L121.203,12.855 C120.11,6.105 114.055,3.375 107.652,3.375 C98.866,3.375 92.761,8.289 92.761,18.613 C92.761,26.505 96.881,33.852 107.652,33.852 C116.09,33.852 120.26,29.583 121.501,22.833 L125.174,22.833" id="Fill-9" fill="white" mask="url(#mask-4)"></path>
        </g>
        <polyline id="Fill-11" fill="white" points="263.228 156.666 266.901 156.666 266.901 171.656 292.513 171.656 292.513 156.666 296.187 156.666 296.187 192.107 292.513 192.107 292.513 175.031 266.901 175.031 266.901 192.107 263.228 192.107 263.228 156.666"></polyline>
        <polyline id="Fill-12" fill="white" points="351.675 156.666 355.647 156.666 343.734 192.107 339.465 192.107 328.794 161.828 328.694 161.828 318.171 192.107 313.902 192.107 302.138 156.666 306.258 156.666 316.087 187.242 316.185 187.242 326.659 156.666 331.175 156.666 341.649 187.242 341.749 187.242 351.675 156.666"></polyline>
        <polyline id="Fill-13" fill="white" points="362.192 156.666 390.385 156.666 390.385 160.041 365.865 160.041 365.865 172.053 389.492 172.053 389.492 175.429 365.865 175.429 365.865 188.732 390.783 188.732 390.783 192.107 362.192 192.107 362.192 156.666"></polyline>
        <polygon id="Fill-14" fill="white" points="399.215 192.107 402.889 192.107 402.889 156.666 399.215 156.666"></polygon>
        <polyline id="Fill-15" fill="white" points="410.035 188.732 436.342 160.041 411.722 160.041 411.722 156.666 441.306 156.666 441.306 160.041 414.849 188.732 441.703 188.732 441.703 192.107 410.035 192.107 410.035 188.732"></polyline>
        <path d="M48.453,141.688 C17.298,141.688 1.723,131.492 1.723,111.098 L11.353,111.098 C11.353,119.052 14.325,124.89 20.272,128.611 C26.217,132.334 35.666,134.194 48.611,134.194 C70.082,134.194 80.818,129.451 80.818,119.968 C80.818,113.955 73.554,109.722 59.031,107.275 C52.294,106.563 45.507,105.798 38.665,104.98 C28.981,103.86 21.615,102.025 16.562,99.474 C9.721,96.11 6.3,91.268 6.3,84.945 C6.3,77.197 11.089,71.332 20.667,67.355 C27.716,64.503 35.768,63.072 44.822,63.072 C74.818,63.072 89.816,72.15 89.816,90.297 L80.028,90.297 C80.028,83.567 77.343,78.597 71.976,75.385 C66.609,72.173 57.925,70.567 45.926,70.567 C38.875,70.567 32.56,71.537 26.982,73.474 C19.615,76.022 15.932,79.846 15.932,84.945 C15.932,90.962 23.035,94.885 37.244,96.72 L59.819,99.627 C80.238,102.177 90.448,108.957 90.448,119.968 C90.448,128.331 85.237,134.346 74.818,138.017 C67.871,140.465 59.083,141.688 48.453,141.688" id="Fill-16" fill="white"></path>
        <polyline id="Fill-17" fill="white" points="149.401 140.274 141.266 140.274 91.192 66.296 102.147 66.296 145.335 131.482 185.079 66.296 195.407 66.296 149.401 140.274"></polyline>
        <polygon id="Fill-18" fill="white" points="202.916 140.274 212.147 140.274 212.147 66.135 202.916 66.135"></polygon>
        <g id="Group-22" transform="translate(0.060000, 0.856000)">
            <mask id="mask-6" fill="white">
                <use xlink:href="#path-5"></use>
            </mask>
            <g id="Clip-20"></g>
            <polyline id="Fill-19" fill="white" mask="url(#mask-6)" points="250.696 74.144 250.696 139.418 241.619 139.418 241.619 74.144 220.652 74.144 220.652 65.297 272.133 65.297 272.133 74.144 250.696 74.144"></polyline>
            <polyline id="Fill-21" fill="white" mask="url(#mask-6)" points="207.45 0 -0.06 51.837 18.467 51.837 207.436 14.434 207.482 14.461 207.482 0.019 207.45 0"></polyline>
        </g>
        <polyline id="Fill-23" fill="white" points="272.193 52.693 207.542 0.875 207.542 15.317 260.429 52.693 272.193 52.693"></polyline>
    </g>
</svg>