<svg width="20" height="20" viewBox="0 0 20 20" fill="none" xmlns="http://www.w3.org/2000/svg">
<path d="M13.0271 3.003V2.99976H13.8711L14.1794 3.06135C14.385 3.10133 14.5717 3.15374 14.7394 3.21857C14.9071 3.2834 15.0694 3.35905 15.2263 3.44549C15.3832 3.53193 15.5255 3.62 15.6532 3.70968C15.7798 3.7983 15.8934 3.8923 15.9941 3.99171C16.0936 4.0922 16.2489 4.11814 16.4599 4.06951C16.6709 4.02089 16.8981 3.95335 17.1416 3.86691C17.385 3.78047 17.6258 3.68322 17.8638 3.57515C18.1019 3.46709 18.2469 3.39848 18.2988 3.36931C18.3497 3.33906 18.3768 3.32285 18.38 3.32068L18.3832 3.31582L18.3995 3.30772L18.4157 3.29961L18.4319 3.29151L18.4482 3.2834L18.4514 3.27854L18.4563 3.2753L18.4612 3.27206L18.4644 3.26719L18.4806 3.26233L18.4968 3.25909L18.4936 3.2834L18.4887 3.30772L18.4806 3.33203L18.4725 3.35634L18.4644 3.37255L18.4563 3.38876L18.4482 3.41307C18.4427 3.42928 18.4373 3.45088 18.4319 3.4779C18.4265 3.50492 18.3751 3.61297 18.2777 3.80207C18.1803 3.99118 18.0586 4.18297 17.9125 4.37747C17.7665 4.57197 17.6355 4.71892 17.5198 4.81834C17.4029 4.91883 17.3255 4.98906 17.2876 5.02905C17.2498 5.0701 17.2038 5.10792 17.1497 5.14251L17.0685 5.196L17.0523 5.2041L17.0361 5.2122L17.0328 5.21707L17.028 5.22031L17.0231 5.22355L17.0198 5.22841L17.0036 5.23652L16.9874 5.24462L16.9841 5.24948L16.9793 5.25272L16.9744 5.25597L16.9711 5.26083L16.9679 5.26569L16.963 5.26893L16.9582 5.27217L16.9549 5.27704H17.0361L17.4905 5.17979C17.7935 5.11495 18.083 5.03662 18.3589 4.94476L18.7971 4.79889L18.8458 4.78268L18.8702 4.77458L18.8864 4.76647L18.9026 4.75837L18.9188 4.75026L18.9351 4.74216L18.9675 4.7373L19 4.73406V4.76647L18.9919 4.76971L18.9838 4.77458L18.9805 4.77944L18.9757 4.78268L18.9708 4.78592L18.9675 4.79078L18.9643 4.79565L18.9594 4.79889L18.9546 4.80213L18.9513 4.80699L18.9481 4.81186L18.9432 4.8151L18.9351 4.83131L18.927 4.84751L18.9221 4.85076C18.9199 4.854 18.8512 4.94583 18.716 5.1263C18.5807 5.30783 18.5077 5.39967 18.4968 5.40184C18.486 5.40508 18.4709 5.42129 18.4514 5.45047C18.433 5.48071 18.3183 5.60121 18.1073 5.81191C17.8963 6.02262 17.6897 6.21009 17.4873 6.37435C17.2839 6.53967 17.1811 6.74281 17.1789 6.98378C17.1757 7.22367 17.1632 7.4949 17.1416 7.79744C17.1199 8.10001 17.0794 8.42687 17.0198 8.77805C16.9603 9.12924 16.8684 9.52635 16.7439 9.96937C16.6195 10.4124 16.468 10.8446 16.2894 11.266C16.1109 11.6875 15.9243 12.0657 15.7295 12.4006C15.5347 12.7356 15.3562 13.0193 15.1939 13.2516C15.0316 13.4839 14.8666 13.7027 14.6988 13.908C14.5311 14.1133 14.319 14.3446 14.0626 14.6017C13.8051 14.8578 13.6644 14.9983 13.6406 15.0232C13.6157 15.0469 13.5097 15.1355 13.3225 15.289C13.1363 15.4435 12.9362 15.598 12.7219 15.7525C12.5088 15.906 12.3129 16.034 12.1344 16.1367C11.9558 16.2393 11.7405 16.3566 11.4884 16.4884C11.2373 16.6213 10.9657 16.7445 10.6736 16.8579C10.3814 16.9714 10.073 17.0768 9.74842 17.174C9.42381 17.2713 9.11001 17.3469 8.80703 17.4009C8.50407 17.4549 8.16051 17.5009 7.77637 17.5387L7.20018 17.5954V17.6035H6.14518V17.5954L6.00721 17.5873C5.91525 17.5819 5.8395 17.5765 5.77998 17.5711C5.72048 17.5657 5.49594 17.536 5.1064 17.482C4.71686 17.4279 4.41119 17.3739 4.18936 17.3199C3.96755 17.2659 3.63751 17.1632 3.19928 17.0119C2.76105 16.8607 2.38611 16.7077 2.07448 16.5532C1.76394 16.3998 1.56917 16.3025 1.49017 16.2615C1.41226 16.2215 1.32462 16.1718 1.22723 16.1124L1.08115 16.0232L1.07792 16.0183L1.07304 16.0151L1.06817 16.0119L1.06492 16.007L1.04869 15.9989L1.03246 15.9908L1.02923 15.9859L1.02435 15.9827L1.01948 15.9794L1.01623 15.9746L1.013 15.9697L1.00812 15.9665H1V15.9341L1.01623 15.9373L1.03246 15.9422L1.1055 15.9503C1.15419 15.9557 1.28675 15.9638 1.50316 15.9746C1.71958 15.9854 1.9495 15.9854 2.19297 15.9746C2.43643 15.9638 2.68531 15.9395 2.93959 15.9016C3.19387 15.8638 3.49414 15.799 3.8404 15.7071C4.18667 15.6153 4.50479 15.5062 4.79479 15.3797C5.08369 15.2522 5.28927 15.1571 5.41156 15.0945C5.53274 15.0329 5.71777 14.9183 5.96664 14.7509L6.33995 14.4996L6.34319 14.4948L6.34806 14.4915L6.35295 14.4883L6.35618 14.4834L6.35942 14.4786L6.36429 14.4753L6.36918 14.4721L6.37241 14.4672L6.38864 14.4623L6.40487 14.4591L6.40812 14.4429L6.41298 14.4267L6.41787 14.4234L6.4211 14.4186L6.29125 14.4105C6.20469 14.4051 6.12083 14.3997 6.03968 14.3943C5.95852 14.3889 5.83139 14.3646 5.65825 14.3213C5.48513 14.2781 5.29848 14.2133 5.09829 14.1268C4.89811 14.0404 4.70334 13.9377 4.51398 13.8189C4.32463 13.7 4.18774 13.6011 4.10334 13.5223C4.02002 13.4444 3.91181 13.3342 3.77872 13.1916C3.64671 13.0479 3.53201 12.9004 3.43463 12.7491C3.33724 12.5978 3.24419 12.4233 3.15547 12.2256L3.02074 11.9306L3.01262 11.9063L3.00451 11.882L2.99964 11.8658L2.99639 11.8495L3.02074 11.8528L3.04509 11.8577L3.22362 11.882C3.34266 11.8982 3.52932 11.9036 3.78359 11.8982C4.03788 11.8928 4.21371 11.882 4.31109 11.8658C4.40848 11.8495 4.46799 11.8387 4.48963 11.8333L4.52209 11.8252L4.56267 11.8171L4.60325 11.809L4.60649 11.8042L4.61136 11.8009L4.61625 11.7977L4.61948 11.7928L4.58702 11.7847L4.55455 11.7766L4.52209 11.7685L4.48963 11.7604L4.45717 11.7523C4.43553 11.7469 4.39767 11.7361 4.34355 11.7199C4.28946 11.7037 4.14338 11.6442 3.90532 11.5416C3.66728 11.4389 3.47791 11.339 3.33724 11.2417C3.19622 11.1442 3.06176 11.0375 2.93472 10.9224C2.80812 10.8057 2.66908 10.6555 2.51758 10.4718C2.3661 10.2881 2.23085 10.0747 2.11181 9.8316C1.99279 9.58847 1.90352 9.35616 1.844 9.13464C1.78472 8.91442 1.74561 8.68928 1.72716 8.46199L1.69793 8.12161L1.71416 8.12485L1.73039 8.12972L1.74662 8.13782L1.76285 8.14593L1.77908 8.15403L1.79531 8.16213L2.04689 8.27559C2.21462 8.35124 2.42291 8.41607 2.67178 8.47009C2.92066 8.52412 3.06943 8.55384 3.11812 8.55924L3.19116 8.56734H3.33724L3.33401 8.56248L3.32913 8.55924L3.32426 8.556L3.32101 8.55114L3.31778 8.54627L3.31289 8.54303L3.30803 8.53979L3.30478 8.53493L3.28855 8.52682L3.27232 8.51872L3.26909 8.51386L3.2642 8.51061L3.25933 8.50737L3.25609 8.50251L3.23986 8.49441L3.22362 8.4863L3.22039 8.48144C3.21715 8.47927 3.17061 8.44469 3.08079 8.37771C2.99206 8.30963 2.89901 8.22157 2.80162 8.11351C2.70424 8.00545 2.60685 7.89199 2.50947 7.77313C2.4119 7.654 2.32501 7.52655 2.24977 7.39223C2.17404 7.25717 2.09396 7.08534 2.00956 6.87681C1.92625 6.66934 1.86294 6.46025 1.81966 6.24954C1.77639 6.03883 1.75204 5.83083 1.74662 5.62552C1.74121 5.42021 1.74662 5.24462 1.76285 5.09874C1.77908 4.95287 1.81154 4.78808 1.86023 4.60439C1.90893 4.4207 1.97927 4.2262 2.07124 4.02089L2.2092 3.71293L2.21731 3.68861L2.22543 3.6643L2.23031 3.66106L2.23354 3.6562L2.23679 3.65133L2.24166 3.64809L2.24654 3.65133L2.24977 3.6562L2.25302 3.66106L2.25789 3.6643L2.26278 3.66754L2.26601 3.6724L2.26925 3.67727L2.27412 3.68051L2.28224 3.69672L2.29035 3.71293L2.29524 3.71617L2.29847 3.72103L2.51758 3.96416C2.66366 4.12624 2.8368 4.30724 3.03697 4.50714C3.23716 4.70704 3.34807 4.81077 3.3697 4.81834C3.39135 4.82698 3.41839 4.85183 3.45086 4.8929C3.48332 4.93288 3.59153 5.02851 3.77547 5.17979C3.95943 5.33106 4.20019 5.50666 4.49775 5.70656C4.79532 5.90646 5.12534 6.10367 5.48783 6.29817C5.85033 6.49267 6.23987 6.66825 6.65645 6.82494C7.07304 6.98163 7.3652 7.08427 7.53291 7.1329C7.70064 7.18153 7.98738 7.24365 8.39315 7.3193C8.79892 7.39494 9.10461 7.44357 9.31019 7.46517C9.51579 7.48678 9.65646 7.49921 9.73219 7.50245L9.84581 7.50569L9.84258 7.48138L9.83769 7.45707L9.80523 7.25446C9.78359 7.1194 9.77277 6.93029 9.77277 6.68717C9.77277 6.44404 9.79171 6.21983 9.82958 6.01452C9.86746 5.80921 9.92427 5.60121 10 5.3905C10.0757 5.17979 10.1499 5.01067 10.2224 4.88317C10.296 4.75675 10.3923 4.61249 10.5113 4.45041C10.6303 4.28832 10.7845 4.12084 10.9739 3.94795C11.1632 3.77505 11.3796 3.62107 11.6231 3.48601C11.8665 3.35094 12.0911 3.24828 12.2967 3.17805C12.5023 3.10782 12.6754 3.06188 12.8161 3.04028C12.9567 3.01867 13.0271 3.00624 13.0271 3.003Z" fill="#6D758F"/>
</svg>
